<svg role="img" viewBox="0 0 24 24" xmlns="http://www.w3.org/2000/svg"><title>Python</title><path d="M12.061 23.988c-2.08.012-4.13.012-6.18.012-3.33 0-5.88-2.52-5.88-5.88 0-2.028.012-4.08.012-6.108 0-.084.024-.156.048-.228.024-.084.06-.156.096-.228.024-.06.06-.12.096-.18.036-.06.072-.108.12-.168.036-.048.084-.096.132-.132.048-.048.096-.084.156-.12.06-.036.12-.06.192-.084.072-.024.144-.048.228-.06.072-.012.156-.024.24-.024h4.032c.108 0 .204.012.3.024.096.012.192.036.276.06.096.036.18.072.264.12.084.048.168.108.24.18.072.072.132.156.18.252.048.096.084.204.108.312.024.108.036.228.036.348v1.632c0 .12-.012.24-.036.348-.024.108-.06.216-.108.312-.048.096-.108.18-.18.252-.072.072-.156.132-.24.18-.084.048-.18.084-.264.12-.084.036-.18.048-.276.06-.096.012-.192.024-.3.024H8.113v2.856h3.288c.108 0 .204.012.3.024.096.012.192.036.276.06.096.036.18.072.264.12.084.048.168.108.24.18.072.072.132.156.18.252.048.096.084.204.108.312.024.108.036.228.036.348v1.632c0 .12-.012.24-.036.348-.024.108-.06.216-.108.312-.048.096-.108.18-.18.252-.072.072-.156.132-.24.18-.084.048-.18.084-.264.12-.084.036-.18.048-.276.06-.096.012-.192.024-.3.024h-3.96zm.012-11.928V8.028H8.113V5.172h3.96c2.232 0 4.056 1.824 4.056 4.056v.696c0 2.232-1.824 4.056-4.056 4.056h-3.96v-2.856h3.948zm11.916 11.916c0-2.08.012-4.13.012-6.18 0-3.33-2.52-5.88-5.88-5.88-2.028 0-4.08.012-6.108.012-.084 0-.156.024-.228.048-.084.024-.156.06-.228.096-.06.024-.12.06-.18.096-.06.036-.108.072-.168.12-.048.036-.096.084-.132.132-.048.048-.084.096-.12.156-.036.06-.06.12-.084.192-.024.072-.048.144-.06.228-.012.072-.024.156-.024.24v4.032c0 .108.012.204.024.3.012.096.036.192.06.276.036.096.072.18.12.264.048.084.108.168.18.24.072.072.156.132.252.18.096.048.204.084.312.108.108.024.228.036.348.036h1.632c.12 0 .24-.012.348-.036.108-.024.216-.06.312-.108.096-.048.18-.108.252-.18.072-.072.132-.156.18-.24.048-.084.084-.18.12-.264.036-.084.048-.18.06-.276.012-.096.024-.192.024-.3v-3.288h2.856v3.288c0 .108.012.204.024.3.012.096.036.192.06.276.036.096.072.18.12.264.048.084.108.168.18.24.072.072.156.132.252.18.096.048.204.084.312.108.108.024.228.036.348.036h1.632c.12 0 .24-.012.348-.036.108-.024.216-.06.312-.108.096-.048.18-.108.252-.18.072-.072.132-.156.18-.24.048-.084.084-.18.12-.264.036-.084.048-.18.06-.276.012-.096.024-.192.024-.3v-3.96h-2.856v3.96H18.9c-2.232 0-4.056-1.824-4.056-4.056v-.696c0-2.232 1.824-4.056 4.056-4.056h.696c2.232 0 4.056 1.824 4.056 4.056v3.948z"/></svg>